/* XPM */
static char *_560319014051[] = {
/* columns rows colors chars-per-pixel */
"202 47 78 1 ",
"  c black",
". c #02010A",
"X c #040210",
"o c #08051F",
"O c #080520",
"+ c #090522",
"@ c #090523",
"# c #090524",
"$ c #0A0625",
"% c #0A0626",
"& c #0A0628",
"* c #0B0628",
"= c #0B0629",
"- c #0C072E",
"; c #0E0835",
": c #0F0938",
"> c #0F093A",
", c #10093B",
"< c #100A3D",
"1 c #110A3D",
"2 c #110A3F",
"3 c #150C4D",
"4 c #150C4F",
"5 c #190F5B",
"6 c #190F5C",
"7 c #1D116A",
"8 c #1D116B",
"9 c #1E126F",
"0 c #201377",
"q c #211379",
"w c #21147A",
"e c #251689",
"r c #25168A",
"t c #291998",
"y c #2A1999",
"u c #2A199B",
"i c #2B199E",
"p c #2E1BA7",
"a c #2E1BA8",
"s c #2E1BAA",
"d c #2F1CAB",
"f c #311DB3",
"g c #311DB5",
"h c #321EB7",
"j c #3620C5",
"k c #3620C6",
"l c #3620C7",
"z c #3A23D5",
"x c #3A23D6",
"c c #3B23D8",
"v c #3B23DA",
"b c #3E25E3",
"n c #3E25E4",
"m c #3F25E5",
"M c #3F25E6",
"N c #4026EB",
"B c #4127F0",
"V c #4127F1",
"C c #4125F3",
"Z c #4325F3",
"A c #4126F3",
"S c #4227F2",
"D c #4227F3",
"F c #4327F3",
"G c #4226F4",
"H c #4326F4",
"J c #4227F4",
"K c #4327F4",
"L c #4326F5",
"P c #4226F6",
"I c #4228F3",
"U c #4128F4",
"Y c #4228F4",
"T c #4328F4",
"R c #4228F5",
"E c #4328F5",
"W c #4229F6",
"Q c None",
/* pixels */
"QQQQQQQQQQTTPTTTTTTTTTTTTTTTTTTTTTTTTTTTTTTTTTTTTTTTTTTTTTTTTTTTTTTTTTTTTTTTTTTTTTTTTTTTTTTTTTTTTTTTTTTTTTTTTTTTTTTTTTTTTTTTTTTTTTTTTTTTTTTTTTTTTTTTTTTTTTTTTTTTTTTTTTTTTTTTTTTTTTTTTTTTTTTTITTEQQQQQQQQQQ",
"QQQQQQQQFTTTTTTTTTTTTTTTTTTTTTTTTTTTTTTTTTTTTTTTTTTTTTTTTTTTTTTTTTTTTTTTTTTTTTTTTTTTTTTTTTTTTTTTTTTTTTTTTTTTTTTTTTTTTTTTTTTTTTTTTTTTTTTTTTTTTTTTTTTTTTTTTTTTTTTTTTTTTTTTTTTTTTTTTTTTTTTTTTTTTITTFEQQQQQQQQ",
"QQQQQQPFTTj0>@                                                                                                                                                                              @>wjPTIEQQQQQQ",
"QQQQQFIFu*                                                                                                                                                                                      *iNTFQQQQQ",
"QQQQPIb;                                                                                                                                                                                          >mTTQQQQ",
"QQQTIc@                                                                                                                                                                                            *vTPQQQ",
"QQPIN*                                                                                                                                                                                              *NITQQ",
"QQTT3                                                                                                                                                                                                3TTQQ",
"QFTs                                                                                                                                                                                                  sITQ",
"QTF@                                                                                                                                                                                                  $FPQ",
"FTf                                                                                                                                                                                                    hFF",
"FT8                                                                                                                                                                                                    9TP",
"FP>                                                                                                                                                                                                    1TP",
"FI@     whhhhhhhhhhhhhhh5       Xwhhhhhhhhhhhhhhhy-      -hhhw             6hhr   -hhhhhhhhhhhhhhhhhhr   -hhhhhhhhhhhhhhr5         3phhhhhhhhhhhhhhh5       rhhr                 5hhhhhhhhhhhhhp3      $TI",
"IT     hTTTTTTTTTTTTTTTTTr      jTTTTTTTTTTTTTTTTTT2     2ITTT6            wTTh   2TTTTTTTTTTTTTTTTTTh   2TTTTTTTTTTTTTTTThX      6TTTTTTTTTTTTTTTTTTy      hTTh                rTTTTTTTTTTTTTTTT5     .TT",
"TT    1TTTTTTTTTTTTTTTTTTTo    1TTTTTTTTTTTTTTTITTTs     2TTTTT6           wTTh   2TTTTTTTTTTTTTTTTTTh   2TTTTTTTTTTTTTTTTTp      nTTTTTTTTTTTTTTTTTTTo     hTTh               oTTTTTTTTTTTTTTTTTc      TT",
"TT    1TTT1111>31111118TTT1    wTTT2212212112212uTTh     1TTTTIm-          wTTh   X2222122tTTT2212222-   2TTT22222212213jTTTX     TTT72212112212118TTT1     hTTh               2ITT712212212117ITT      TT",
"TT    1TTT            1TTT1    wTTT             wTTh     1TTTTTTn-         wTTh           wTTT           2TTT           @TTT2     TTT2            1TTT1     hTTh               1TTT1          2TTT      TT",
"TT    1TTT            -hhh-    wTTT             wITh     1TTT8mTTjX        wTTh           wTTT           2TTT            TTT2     TTT1            1TTT1     hTTh               2TTT1          -hhh      TT",
"TT    1TTT                     wTTT             wTTh     1TTT11TTTjX       wTTh           wTTT           2TTT            TTT2     TTT2            1TTT1     hTTh               2TTT2                    TT",
"TT    1TTT                     wTTT             wTTh     1TTT1 6TTTp       wTTh           wTTT           2TTT            TTT1     TTT2            1TTT1     hTTh               2TTT2                    TT",
"TT    1TTT                     wTTT             wTTh     1TTT1  wTTTy      wTTh           wTTT           2TTT           2TTT1     TTT2            1TTT1     hTTh               2TTT2                    TT",
"TT    1TTT                     wTTT             wTTh     1TTT1   yITTw     wTTh           wTTT           1TTTwwwwwwwwwwrbTTTX     TTT1            1TTT1     hTTh               -TTTTTTTTTTTTTTTcw       TT",
"TT    1TTT                     wTTT             wTTh     1TTT1    sTTT6    wTTh           wTTT           1TTTTTTTTTTTTTTTTTw      TTT1            1TTT1     hTTh                hTTTTTTTTTTTTTTTTw      TT",
"TT    1TTT                     wTTT             wTTh     1TTT1    XjTTT3   wTTh           wTTT           2TTTTTTTTTTTTTTTTr       TTT2            1TTT1     hTTh                .wNTTTTTTTTTTTTTTm      TT",
"TT    1TTT                     wTTT             wTTh     1TTT1     XjITm-  wTTh           wTTT           2TTTwwwwwwwsTTTw.        TTI2            1TTT1     hTTh                              2TTI      TT",
"TT    1TTT                     wTTT             wTTh     1TTT1      -mTTb@ wTTh           wTTT           2TTT       .NTTh         TTT1            1TTT1     hTTh                              1TTT      TT",
"TT    1TTT                     wTTT             wTTh     1TTT1       -NTIjXwTTh           wTTT           1TTT        wTTT3        TTT1            1TTT1     hTTh                              1TTT      TT",
"TT    1TTT            -hhh-    wTTT             wTTh     1TTT1        6TTTjrTTh           wTTT           2TTT        XmTIh        TTW2            1TTT1     hTTh               6hhr           1TTT      TT",
"TT    1TTT            1TTT1    wTTT             wTTh     1TTT1         6TTTbTTh           wTTT           2TTT         8TTI2       TTT2            1TTT1     hTTh               wTTh           2TTT      TT",
"TT    1TTT>11>3>>11>118TTT1    wTTT>3:2>>21>1111tTTh     1TTT1          rITTTTh           wTTT           2TTT          cTTc       TTT72>>22>>22>118TTT1     hTTj22222222222-   wTTj222122222227TTT      TT",
"TT    1TTTTTTTTTTTTTTTITTTo    1TTTIIITTTTTTTIITTTTs     1TTT1           uTTTTh           wTTT           2TTT          6TTT6      NTTTTTTTTTTTTTTTTTTT@     hTTTIIIIIIIIIIIh   7TTTTITIIIIIIIIITTx      TT",
"TT     hTTTTTTTTTTTTTTTTTr      jTTTTTTTTTTTTTTTTTT1     1TTT1            hITTh           wTTT           2TTT           cITc      6TTTTTTTTTTTTTTTTTTu      hTTTTTTTTTTTTTTh   XlTTTTTTTTTTTTTTTT6      TT",
"TT      whhhhhhhhhhhhhhh6       Xwhhhhhhhhhhhhhhhs-      -hhh-            .shhr           6hhh           -hhh           2hhh2      3dhhhhhhhhhhhhhhh6       rhhhhhhhhhhhhhhr    Xrhhhhhhhhhhhhhd3       TT",
"TT                                                                                                                                                                                                      TT",
"TT                                                                                                                                                                                                      TT",
"TT                                                                                                                                                                                                      TT",
"TT                                                                                                                                                                                                      TT",
"TT                                                                                                                                                                                                      TT",
"TT                                                                                                                                                                                                      TT",
"TT                                                                                                                                                                                                      TT",
"TT                                                                                                                                                                                                      TT",
"TT                                                                                                                                                                                                      TT",
"TT                                                                                                                                                                                                      TT",
"TT                                                                                                                                                                                                      TT",
"TTTTTTTTTTTTTTTTTTTTTTTTTTTTTTTTTTTTTTTTTTTTTTTTTTTTTTTTTTTTTTTTTTTTTTTTTTTTTTTTTTTTTTTTTTTTTTTTTTTTTTTTTTTTTTTTTTTTTTTTTTTTTTTTTTTTTTTTTTTTTTTTTTTTTTTTTTTTTTTTTTTTTTTTTTTTTTTTTTTTTTTTTTTTTTTTTTTTTTTTTT",
"TTTTTTTTTTTTTTTTTTTTTTTTTTTTTTTTTTTTTTTTTTTTTTTTTTTTTTTTTTTTTTTTTTTTTTTTTTTTTTTTTTTTTTTTTTTTTTTTTTTTTTTTTTTTTTTTTTTTTTTTTTTTTTTTTTTTTTTTTTTTTTTTTTTTTTTTTTTTTTTTTTTTTTTTTTTTTTTTTTTTTTTTTTTTTTTTTTTTTTTTTT"
};
